<?xml version="1.0" encoding="UTF-8"?>
<svg width="16px" height="26px" viewBox="0 0 16 26" version="1.1" xmlns="http://www.w3.org/2000/svg" xmlns:xlink="http://www.w3.org/1999/xlink">
    <title>编组 41</title>
    <defs>
        <linearGradient x1="41.5715852%" y1="0%" x2="59.0679432%" y2="100%" id="linearGradient-1">
            <stop stop-color="#FE8C7C" offset="0%"></stop>
            <stop stop-color="#FA5741" offset="100%"></stop>
        </linearGradient>
        <path d="M15.7963333,7.89808333 C15.7963333,9.01911111 15.6265556,9.93958333 15.2872222,10.6593056 L9.67216667,22.5991389 C9.50755556,22.9385278 9.26336111,23.2058056 8.93941667,23.4012778 C8.61544444,23.5965 8.26841667,23.6943333 7.89816667,23.6943333 C7.52791667,23.6943333 7.18083333,23.5965278 6.85691667,23.4012778 C6.53297222,23.2058056 6.29388889,22.9385 6.13958333,22.5991389 L0.509055556,10.6593889 C0.169666667,9.93972222 -7.38076267e-13,9.01913889 -7.38076267e-13,7.89816667 C-7.38076267e-13,5.71802778 0.771305556,3.85655556 2.31391667,2.31391667 C3.85652778,0.771277778 5.71777778,1.42108547e-14 7.89816667,1.42108547e-14 C10.0783056,1.42108547e-14 11.9397778,0.771277778 13.4824167,2.31391667 C15.0250556,3.85652778 15.7963333,5.71802778 15.7963333,7.89811111 L15.7963333,7.89808333 Z M10.6903056,10.69025 C11.4615833,9.91894444 11.8472222,8.98833333 11.8472222,7.89816667 C11.8472222,6.80825 11.4615833,5.87736111 10.6903056,5.10602778 C9.919,4.33475 8.98808333,3.94908333 7.89816667,3.94908333 C6.80797222,3.94908333 5.87736111,4.33472222 5.10602778,5.10602778 C4.33472222,5.87733333 3.94908333,6.80825 3.94908333,7.89816667 C3.94908333,8.98836111 4.33472222,9.91897222 5.10602778,10.69025 C5.87730556,11.4615556 6.80797222,11.8471944 7.89816667,11.8471944 C8.98808333,11.8471944 9.91897222,11.4615556 10.6903056,10.69025 Z" id="path-2"></path>
        <linearGradient x1="50%" y1="0%" x2="50%" y2="100%" id="linearGradient-4">
            <stop stop-color="#FFC8A1" offset="0%"></stop>
            <stop stop-color="#CD0F09" offset="100%"></stop>
        </linearGradient>
        <linearGradient x1="50%" y1="0%" x2="50%" y2="100%" id="linearGradient-5">
            <stop stop-color="#FE6F6F" offset="0%"></stop>
            <stop stop-color="#FF0000" offset="100%"></stop>
        </linearGradient>
    </defs>
    <g id="最新版" stroke="none" stroke-width="1" fill="none" fill-rule="evenodd">
        <g id="4最新改版-重点企业(浅色版本)" transform="translate(-1276.000000, -368.000000)">
            <g id="地理位置" transform="translate(1240.000000, 368.000000)">
                <g id="编组-41" transform="translate(36.000000, 0.000000)">
                    <ellipse id="椭圆形" fill="#003753" cx="8" cy="24.125" rx="3" ry="1.125"></ellipse>
                    <g id="椭圆形">
                        <mask id="mask-3" fill="white">
                            <use xlink:href="#path-2"></use>
                        </mask>
                        <use id="蒙版" fill="url(#linearGradient-1)" fill-rule="nonzero" xlink:href="#path-2"></use>
                        <path d="M3,17 C4.66666667,18.3333333 6.33333333,19 8,19 C9.66666667,19 11.3333333,18.3333333 13,17 L13,24 L3,24 L3,17 Z" id="矩形" fill="url(#linearGradient-4)" mask="url(#mask-3)"></path>
                        <circle fill="url(#linearGradient-5)" mask="url(#mask-3)" cx="8" cy="8" r="5"></circle>
                    </g>
                </g>
            </g>
        </g>
    </g>
</svg>