<?xml version="1.0" encoding="UTF-8"?>
<svg width="12px" height="19px" viewBox="0 0 12 19" version="1.1" xmlns="http://www.w3.org/2000/svg" xmlns:xlink="http://www.w3.org/1999/xlink">
    <title>地理位置</title>
    <defs>
        <radialGradient cx="50%" cy="0%" fx="50%" fy="0%" r="149.998945%" gradientTransform="translate(0.500000,0.000000),scale(1.000000,0.666671),rotate(90.000000),translate(-0.500000,-0.000000)" id="radialGradient-1">
            <stop stop-color="#FFFF4B" offset="0%"></stop>
            <stop stop-color="#FFC13B" offset="100%"></stop>
        </radialGradient>
        <path d="M11.84725,5.9235625 C11.84725,6.76433333 11.7199167,7.4546875 11.4654167,7.99447917 L7.254125,16.9493542 C7.13066667,17.2038958 6.94752083,17.4043542 6.7045625,17.5509583 C6.46158333,17.697375 6.2013125,17.77075 5.923625,17.77075 C5.6459375,17.77075 5.385625,17.6973958 5.1426875,17.5509583 C4.89972917,17.4043542 4.72041667,17.203875 4.6046875,16.9493542 L0.381791667,7.99454167 C0.12725,7.45479167 -5.535572e-13,6.76435417 -5.535572e-13,5.923625 C-5.535572e-13,4.28852083 0.578479167,2.89241667 1.7354375,1.7354375 C2.89239583,0.578458333 4.28833333,1.0658141e-14 5.923625,1.0658141e-14 C7.55872917,1.0658141e-14 8.95483333,0.578458333 10.1118125,1.7354375 C11.2687917,2.89239583 11.84725,4.28852083 11.84725,5.92358333 L11.84725,5.9235625 Z M8.01772917,8.0176875 C8.5961875,7.43920833 8.88541667,6.74125 8.88541667,5.923625 C8.88541667,5.1061875 8.5961875,4.40802083 8.01772917,3.82952083 C7.43925,3.2510625 6.7410625,2.9618125 5.923625,2.9618125 C5.10597917,2.9618125 4.40802083,3.25104167 3.82952083,3.82952083 C3.25104167,4.408 2.9618125,5.1061875 2.9618125,5.923625 C2.9618125,6.74127083 3.25104167,7.43922917 3.82952083,8.0176875 C4.40797917,8.59616667 5.10597917,8.88539583 5.923625,8.88539583 C6.7410625,8.88539583 7.43922917,8.59616667 8.01772917,8.0176875 Z" id="path-2"></path>
        <linearGradient x1="50%" y1="0%" x2="50%" y2="100%" id="linearGradient-4">
            <stop stop-color="#FFC8A1" offset="0%"></stop>
            <stop stop-color="#873D1F" offset="100%"></stop>
        </linearGradient>
        <linearGradient x1="50%" y1="0%" x2="50%" y2="100%" id="linearGradient-5">
            <stop stop-color="#FFCC7A" offset="0%"></stop>
            <stop stop-color="#FFC22F" offset="100%"></stop>
        </linearGradient>
    </defs>
    <g id="最新版" stroke="none" stroke-width="1" fill="none" fill-rule="evenodd">
        <g id="4最新改版-重点企业(浅色版本)" transform="translate(-1310.000000, -419.000000)">
            <g id="地理位置" transform="translate(1310.000000, 419.000000)">
                <ellipse id="椭圆形" fill="#003753" cx="6" cy="17.625" rx="3" ry="1.125"></ellipse>
                <g id="椭圆形">
                    <mask id="mask-3" fill="white">
                        <use xlink:href="#path-2"></use>
                    </mask>
                    <use id="蒙版" fill="url(#radialGradient-1)" fill-rule="nonzero" xlink:href="#path-2"></use>
                    <path d="M2.25,12.75 C3.5,13.75 4.75,14.25 6,14.25 C7.25,14.25 8.5,13.75 9.75,12.75 L9.75,18 L2.25,18 L2.25,12.75 Z" id="矩形" fill="url(#linearGradient-4)" mask="url(#mask-3)"></path>
                    <circle fill="url(#linearGradient-5)" mask="url(#mask-3)" cx="6" cy="6" r="3.75"></circle>
                </g>
            </g>
        </g>
    </g>
</svg>